<?xml version="1.0" encoding="UTF-8" standalone="no"?>
<!-- Created with Inkscape (http://www.inkscape.org/) -->

<svg
   width="98mm"
   height="100mm"
   viewBox="0 0 98 100"
   version="1.1"
   id="svg1"
   inkscape:version="1.3.1 (9b9bdc1480, 2023-11-25, custom)"
   sodipodi:docname="logo.svg"
   xmlns:inkscape="http://www.inkscape.org/namespaces/inkscape"
   xmlns:sodipodi="http://sodipodi.sourceforge.net/DTD/sodipodi-0.dtd"
   xmlns="http://www.w3.org/2000/svg"
   xmlns:svg="http://www.w3.org/2000/svg">
  <sodipodi:namedview
     id="namedview1"
     pagecolor="#ffffff"
     bordercolor="#000000"
     borderopacity="0.25"
     inkscape:showpageshadow="2"
     inkscape:pageopacity="0.0"
     inkscape:pagecheckerboard="0"
     inkscape:deskcolor="#d1d1d1"
     inkscape:document-units="mm"
     inkscape:zoom="0.79642256"
     inkscape:cx="397.4021"
     inkscape:cy="561.25984"
     inkscape:window-width="1920"
     inkscape:window-height="1136"
     inkscape:window-x="0"
     inkscape:window-y="27"
     inkscape:window-maximized="1"
     inkscape:current-layer="layer1" />
  <defs
     id="defs1" />
  <g
     inkscape:label="Layer 1"
     inkscape:groupmode="layer"
     id="layer1">
    <path
       class="st0"
       d="m 42.988684,41.134256 c -0.227541,-0.41275 -0.357187,-0.883708 -0.357187,-1.38377 0,-0.502709 0.132291,-0.973667 0.357187,-1.383771 0.486834,-0.875771 1.423459,-1.471083 2.497667,-1.471083 1.574271,0 2.852208,1.277937 2.852208,2.854854 0,1.57427 -1.277937,2.852208 -2.852208,2.852208 -1.076854,0 -2.010833,-0.590021 -2.497667,-1.468438 z m 19.105563,15.3035 c 1.576916,0 2.854854,-1.277937 2.854854,-2.852208 0,-1.576917 -1.277938,-2.854854 -2.854854,-2.854854 -1.074209,0 -2.008188,0.595312 -2.495021,1.471083 -0.230188,0.410104 -0.357188,0.881063 -0.357188,1.383771 0,0.500062 0.127,0.973667 0.357188,1.381125 0.486833,0.875771 1.420812,1.471083 2.495021,1.471083 z M 82.893142,35.424548 c -0.03969,-2.754312 -0.275167,-4.979458 -0.486833,-6.474354 -0.03969,-0.269875 -0.07673,-0.518583 -0.113771,-0.740833 -0.0291,-0.164042 -0.05556,-0.314854 -0.07673,-0.449792 v -0.01058 c -0.01058,-0.04498 -0.01852,-0.08467 -0.02646,-0.124354 -0.05821,-0.336021 -0.108479,-0.566209 -0.132291,-0.674688 -0.01058,-0.05556 -0.01852,-0.07938 -0.01852,-0.07938 L 48.86508,10.564299 15.681039,26.867923 c 0,0 -0.748771,3.217334 -0.838729,8.273521 -0.0079,0.346604 -0.01058,0.690563 -0.01058,1.037167 v 0.108479 h 24.413104 c 1.219729,-2.19075 3.561292,-3.672417 6.244167,-3.672417 2.431521,0 4.579937,1.217084 5.863166,3.071813 0.799042,1.153583 1.267355,2.555875 1.267355,4.064 0,3.937 -3.190875,7.135812 -7.130521,7.135812 -2.169584,0 -4.111625,-0.968375 -5.418667,-2.497667 -0.314854,-0.365125 -0.587375,-0.759354 -0.8255,-1.180041 h -23.97125 c 0.0979,0.796396 0.214313,1.606021 0.357188,2.436812 0.03704,0.214313 0.07673,0.431271 0.116417,0.645584 0.227541,1.248833 0.508,2.52677 0.846666,3.833812 h 39.264166 c 1.217084,-2.19075 3.553355,-3.672417 6.23623,-3.672417 2.423583,0 4.569354,1.209146 5.857874,3.055938 0.0026,0.0026 0.0079,0.0026 0.0079,0.0079 0.799042,1.153584 1.27,2.555875 1.27,4.071938 0,3.939646 -3.196167,7.130521 -7.135812,7.130521 -2.164292,0 -4.103688,-0.963084 -5.416021,-2.487084 0,-0.0026 0,-0.0026 -0.0026,-0.0079 -0.309575,-0.365125 -0.584741,-0.759354 -0.817575,-1.180042 H 18.911601 c 4.34975,10.411354 13.020146,21.433896 29.845,29.337 0.0291,0.01587 0.05027,0.02646 0.08467,0.03969 0.01058,0.0079 0.01852,0.01058 0.02646,0.01587 0.0079,-0.0026 0.01588,-0.0079 0.02117,-0.01587 6.765395,-3.167062 12.218458,-6.839479 16.599958,-10.78177 0.209021,-0.185209 0.41275,-0.373063 0.613833,-0.558271 0.203729,-0.1905 0.404813,-0.375709 0.605896,-0.566209 0.201083,-0.193145 0.396875,-0.383645 0.595312,-0.576791 0.198438,-0.193146 0.39423,-0.391584 0.587375,-0.584729 0.185209,-0.1905 0.373063,-0.381 0.555625,-0.568855 0.01588,-0.01852 0.03175,-0.03704 0.05027,-0.05556 0.298979,-0.312208 0.592667,-0.629708 0.881063,-0.947208 0.52652,-0.574146 1.039812,-1.150938 1.524,-1.735667 0.22225,-0.261938 0.439208,-0.526521 0.65352,-0.791104 0.17198,-0.209021 0.338667,-0.423334 0.500063,-0.635 0.492125,-0.632354 0.963083,-1.27 1.418167,-1.910292 0.150812,-0.214312 0.298979,-0.425979 0.4445,-0.640292 0.288395,-0.425979 0.574145,-0.85725 0.846666,-1.285875 0.108479,-0.171979 0.219604,-0.343958 0.325438,-0.515937 0.164041,-0.259292 0.320146,-0.521229 0.478896,-0.785813 3.032125,-5.072062 4.870979,-10.181166 5.945187,-14.906624 0.06615,-0.267229 0.124354,-0.531813 0.179917,-0.799042 0.01058,-0.05556 0.02646,-0.113771 0.03175,-0.171979 0.01588,-0.05821 0.02646,-0.116417 0.03704,-0.171979 0.0026,-0.01852 0.0026,-0.03704 0.0079,-0.05027 0.92075,-4.503208 1.166812,-8.614833 1.121833,-11.956521 z"
       id="path1"
       style="fill:#00588f;stroke-width:0.264583" />
    <path
       class="st1"
       d="m 17.16006,60.718715 v 10.78177 c 0,2.897188 2.346854,5.241396 5.241395,5.241396 h 6.662209 C 24.031289,72.071985 20.051955,66.740631 17.16006,60.718715 Z"
       id="path23"
       style="fill:#6c6c6c;stroke-width:0.264583" />
    <path
       class="st1"
       d="m 22.404101,13.337132 c -2.897187,0 -5.241396,2.346854 -5.241396,5.241396 v 4.098395 l 19.007667,-9.339791 z"
       id="path24"
       style="fill:#6c6c6c;stroke-width:0.264583" />
    <path
       class="st1"
       d="m 80.564809,18.578528 c 0,-2.894542 -2.346854,-5.241396 -5.241396,-5.241396 H 61.551851 l 19.012958,9.342437 z"
       id="path25"
       style="fill:#6c6c6c;stroke-width:0.264583" />
    <path
       class="st1"
       d="m 68.849059,76.741881 h 6.474354 c 2.897188,0 5.241396,-2.346854 5.241396,-5.241396 V 60.694902 c -2.553229,5.331354 -6.283854,10.863792 -11.71575,16.046979 z"
       id="path26"
       style="fill:#6c6c6c;stroke-width:0.264583" />
    <path
       class="st2"
       d="M 29.063664,76.741881 H 27.470872 C 23.258705,72.601152 19.819122,67.965652 17.162705,62.851256 v -2.132541 c 2.88925,6.021916 6.868584,11.35327 11.900959,16.023166 z m 4.990041,-63.404749 -16.891,8.302625 v 1.037166 l 19.007667,-9.339791 z m 46.511104,8.302625 -16.896292,-8.302625 h -2.116666 l 19.010312,9.342437 v -1.039812 z m -11.71575,55.102124 h 1.341437 c 4.593167,-4.524375 7.940146,-9.294812 10.374313,-13.959416 V 60.694902 C 78.01158,66.026256 74.280955,71.558694 68.849059,76.741881 Z M 15.270935,43.20859 c 0.09789,0.796396 0.214312,1.606021 0.357187,2.436812 0.03704,0.214313 0.07673,0.431271 0.116417,0.645584 0.240771,1.28852 0.526521,2.566458 0.862541,3.833812 h 0.746125 C 16.691747,47.857319 16.178455,45.544861 15.81333,43.20859 Z m 67.622207,-7.784042 c -0.0053,-0.407458 -0.01852,-0.799041 -0.03175,-1.185333 -0.04498,-1.349375 -0.140229,-2.696104 -0.296333,-4.034896 -0.05292,-0.463021 -0.105834,-0.881062 -0.15875,-1.254125 -0.03969,-0.269875 -0.07673,-0.518583 -0.113771,-0.740833 -0.02646,-0.150813 -0.05027,-0.298979 -0.07673,-0.449792 v -0.01058 c -0.02117,-0.108479 -0.04233,-0.216959 -0.06085,-0.325438 -0.0053,-0.0344 -0.01323,-0.0635 -0.01852,-0.09525 -0.0291,-0.153458 -0.05821,-0.306916 -0.08731,-0.460375 0.0026,0.02646 0.0079,0.05556 0.01058,0.07937 0.867833,5.916084 0.661458,11.977688 -0.433917,17.846146 C 78.36083,63.528589 65.766663,77.07261 48.888893,85.052443 47.727372,84.467714 46.317143,83.853881 45.322309,83.258568 40.030643,80.416943 35.051184,76.863589 30.759643,72.654069 26.129435,68.193194 22.486122,62.856548 19.885268,57.043652 h -0.939271 c 1.36525,3.286125 3.071813,6.429375 5.101167,9.358312 4.397375,6.273271 10.212916,11.575521 16.716375,15.607771 2.542645,1.651 5.357812,3.071813 8.080374,4.410604 5.974292,-2.794 11.699875,-6.357937 16.639646,-10.78177 0.209021,-0.185209 0.41275,-0.373063 0.613833,-0.558271 0.20373,-0.1905 0.404813,-0.375709 0.605896,-0.566209 0.201084,-0.193145 0.396875,-0.383645 0.595313,-0.576791 0.198437,-0.193146 0.394229,-0.391584 0.587375,-0.584729 0.185208,-0.1905 0.373062,-0.381 0.555625,-0.568855 0.01588,-0.01852 0.03175,-0.03704 0.05027,-0.05556 0.566209,-0.592667 1.113896,-1.193271 1.651,-1.812396 0.256646,-0.288396 0.508,-0.579437 0.756709,-0.873125 0.22225,-0.261937 0.439208,-0.526521 0.653521,-0.791104 0.171979,-0.209021 0.338666,-0.423333 0.500062,-0.635 0.497417,-0.624417 0.968375,-1.264708 1.418167,-1.910292 0.150812,-0.214312 0.298979,-0.425979 0.4445,-0.640291 0.288396,-0.42598 0.574146,-0.85725 0.846666,-1.285875 0.10848,-0.17198 0.219605,-0.343959 0.325438,-0.515938 0.164042,-0.259292 0.320146,-0.521229 0.478896,-0.785812 2.738437,-4.614334 4.733396,-9.670521 5.945187,-14.906625 0.07408,-0.320146 0.145521,-0.645583 0.211667,-0.971021 0.01588,-0.05821 0.02646,-0.116417 0.03704,-0.171979 0.703792,-3.378729 1.084792,-6.823604 1.132417,-10.271125 0.0026,-0.116417 0,-0.235479 0,-0.351896 0.0053,-0.468312 0.0079,-0.933979 0,-1.381125 z M 15.68633,26.867923 c -0.502708,2.727854 -0.785812,5.498042 -0.846666,8.273521 -0.0079,0.346604 -0.01058,0.690563 -0.01058,1.037167 v 0.108479 h 0.336021 c -0.0979,-3.140604 0.07673,-6.299729 0.521229,-9.419167 z"
       id="path41"
       style="opacity:0.2;stroke-width:0.264583" />
  </g>
</svg>
